<svg width="22" height="22" viewBox="0 0 22 22" fill="none" xmlns="http://www.w3.org/2000/svg">
<path d="M17.5626 0.993847C17.2327 0.638947 16.6387 0.872407 16.6387 1.35698V3.55802H13.5815C12.6142 3.55802 11.5462 4.0659 10.653 5.0366C9.75977 6.0073 8.7891 7.44732 7.24803 9.81548C5.70002 12.1942 4.83796 13.6317 4.30036 14.2777C3.76276 14.9237 3.84923 14.8683 3.06679 14.8683H0.0369778H0V17.6958H0.0369778H3.06679C4.24151 17.6958 5.42306 17.1677 6.25817 16.1642C7.09328 15.1608 7.88149 13.7707 9.40025 11.4369C10.9259 9.09243 11.8959 7.70491 12.5205 7.0262C13.145 6.34751 13.1719 6.38558 13.5815 6.38558H16.6387V8.74152C16.6387 9.22606 17.2327 9.45954 17.5626 9.10471L21.3333 5.04983L17.5626 0.993847ZM0 3.558V6.38556H0.0369778H3.06679C3.84923 6.38556 3.76276 6.32867 4.30036 6.97464C4.64624 7.39026 5.21604 8.27167 5.92684 9.3825C6.02318 9.23386 6.06859 9.16219 6.17054 9.00547C6.55774 8.41049 6.90944 7.87365 7.23433 7.38405C7.34739 7.21366 7.44212 7.07925 7.54924 6.92014C7.06887 6.17361 6.6688 5.58152 6.25817 5.08812C5.42306 4.08466 4.24151 3.558 3.06679 3.558H0.03696H0ZM17.5626 12.229C17.2327 11.8741 16.6387 12.1076 16.6387 12.5921V14.8683H13.5815C13.1718 14.8683 13.145 14.9049 12.5204 14.2262C12.1073 13.7772 11.5223 12.9814 10.746 11.8404C10.6522 11.9836 10.5762 12.097 10.4777 12.2483C9.9342 13.0835 9.5595 13.6861 9.1661 14.3101C9.72423 15.1052 10.1993 15.7228 10.653 16.2157C11.5462 17.1865 12.6142 17.6958 13.5815 17.6958H16.6387V19.9766C16.6387 20.4612 17.2326 20.6947 17.5626 20.3398L21.3333 16.285L17.5626 12.229Z" fill="black"/>
</svg>
