          <svg
            width="21"
            height="16"
            viewBox="0 0 21 16"
            fill="none"
            xmlns="http://www.w3.org/2000/svg"
          >
            <path
              d="M5.79345 6.61797L9.68252 9.89988C9.86886 10.0571 10.1414 10.0571 10.3278 9.89988L14.2798 6.56487C14.6891 6.21945 14.3427 5.55926 13.8258 5.69983L11.4101 6.35688V0.66725C11.4101 0.390965 11.1862 0.166992 10.9099 0.166992H8.84498C8.56869 0.166992 8.34472 0.390965 8.34472 0.667249V6.35688L6.25453 5.75493C5.73593 5.60558 5.38101 6.26991 5.79345 6.61797Z"
              fill="white"
              stroke="white"
              stroke-width="0.333505"
            />
            <path
              d="M8.47585 10.1724L8.68678 10.436C9.02247 10.8559 9.50317 11.0961 10.0051 11.0962C10.5071 11.0962 10.9878 10.8556 11.3235 10.436L11.5344 10.1724H15.634C16.9435 10.1724 18.0049 11.366 18.0051 12.8384C18.0051 14.3113 16.9435 15.5054 15.634 15.5054H4.37526C3.06586 15.5052 2.00514 14.3111 2.00514 12.8384C2.00534 11.3661 3.06599 10.1726 4.37526 10.1724H8.47585ZM15.9075 12.27C15.5932 11.9559 15.084 11.9558 14.7698 12.27C14.4558 12.5842 14.4557 13.0935 14.7698 13.4077C15.084 13.7219 15.5932 13.7218 15.9075 13.4077C16.2217 13.0935 16.2217 12.5843 15.9075 12.27Z"
              fill="white"
            />
          </svg>