<svg width="22" height="22" viewBox="0 0 22 22" fill="none" xmlns="http://www.w3.org/2000/svg">
<path d="M12.3387 21.1152C16.2614 20.4278 21.3333 17.9609 21.3333 11.5819C21.3333 5.77686 16.4727 1.91127 12.9776 0.135088C12.202 -0.259055 11.2941 0.259283 11.2941 1.04351V3.04941C11.2941 4.63118 10.5334 7.51841 8.41954 8.71932C7.34032 9.33245 6.17477 8.41478 6.04361 7.29546L5.9359 6.37632C5.8107 5.3078 4.56585 4.65914 3.58897 5.31062C1.834 6.48098 0 8.53041 0 11.5819C0 19.383 6.63704 21.3333 9.95551 21.3333C10.1485 21.3333 10.3514 21.3283 10.5626 21.3176C8.92398 21.1952 6.27451 20.3064 6.27451 17.4324C6.27451 15.1842 8.15068 13.6633 9.57616 12.924C9.95953 12.7251 10.4083 12.9834 10.4083 13.373V14.0194C10.4083 14.5141 10.6271 15.2874 11.148 15.8167C11.7376 16.4157 12.6029 15.7882 12.6726 15.0004C12.6947 14.7519 12.9806 14.5935 13.2268 14.7193C14.0316 15.1305 15.0588 16.0088 15.0588 17.4324C15.0588 19.6791 13.642 20.7126 12.3387 21.1152Z" fill="white"/>
</svg>
