<svg width="16" height="16" viewBox="0 0 16 16" fill="none" xmlns="http://www.w3.org/2000/svg">
<path d="M8.83474 0.489057C8.52179 0.176011 8.09731 9.45356e-05 7.65466 0H1.66914C1.22645 0 0.801902 0.175855 0.488879 0.488879C0.175855 0.801902 0 1.22645 0 1.66914V7.65466C9.45356e-05 8.09731 0.176011 8.52179 0.489057 8.83474L7.1656 15.5113C7.47861 15.8242 7.90309 16 8.34568 16C8.78828 16 9.21275 15.8242 9.52576 15.5113L15.5113 9.52576C15.8242 9.21275 16 8.78828 16 8.34568C16 7.90309 15.8242 7.47861 15.5113 7.1656L8.83474 0.489057ZM4.17284 5.84198C3.73005 5.84187 3.30543 5.66586 2.99241 5.35268C2.67939 5.0395 2.50359 4.6148 2.5037 4.17201C2.50382 3.72921 2.67982 3.3046 2.993 2.99158C3.30618 2.67855 3.73088 2.50276 4.17368 2.50287C4.61647 2.50298 5.04108 2.67899 5.35411 2.99217C5.66713 3.30535 5.84292 3.73005 5.84281 4.17284C5.8427 4.61563 5.6667 5.04025 5.35352 5.35327C5.04034 5.6663 4.61563 5.84209 4.17284 5.84198Z" fill="#A8A299"/>
</svg>
