<svg width="184" height="39" viewBox="0 0 184 39" fill="none" xmlns="http://www.w3.org/2000/svg">
<g opacity="0.99">
<rect width="35.5556" height="35.5556" rx="3.74269" fill="black"/>
<path d="M10.1987 5.3335V23.3667L10.3394 23.2856L15.2046 20.4771L15.2515 20.4497V14.6899H20.3042V20.4497L20.3511 20.4771L25.2163 23.2856L25.3569 23.3667V5.3335H30.2222V30.1528L17.8247 22.9956L17.7778 22.9692L17.731 22.9956L5.3335 30.1528V5.3335H10.1987ZM20.3042 5.3335V10.3862H15.2515V5.3335H20.3042Z" fill="#05DF8B" stroke="#006837" stroke-width="0.187134"/>
</g>
<path d="M59.3423 9.41667V26.8887H55.0863V19.6958H48.4659V26.8887H44.2099V9.41667H48.4659V16.2611H55.0863V9.41667H59.3423ZM61.5685 19.9198C61.5685 18.4928 61.834 17.2401 62.3649 16.1616C62.9125 15.083 63.6509 14.2534 64.5801 13.6727C65.5092 13.0919 66.5463 12.8016 67.6912 12.8016C68.6701 12.8016 69.5246 13.0007 70.2547 13.3989C71.0014 13.7971 71.5738 14.3198 71.9721 14.9669V13.0007H76.2281V26.8887H71.9721V24.9224C71.5572 25.5696 70.9765 26.0922 70.2298 26.4904C69.4998 26.8887 68.6452 27.0878 67.6663 27.0878C66.538 27.0878 65.5092 26.7974 64.5801 26.2167C63.6509 25.6193 62.9125 24.7814 62.3649 23.7029C61.834 22.6078 61.5685 21.3467 61.5685 19.9198ZM71.9721 19.9447C71.9721 18.8827 71.6734 18.0448 71.0761 17.4309C70.4953 16.817 69.7818 16.51 68.9356 16.51C68.0894 16.51 67.3676 16.817 66.7703 17.4309C66.1895 18.0282 65.8992 18.8579 65.8992 19.9198C65.8992 20.9817 66.1895 21.8279 66.7703 22.4584C67.3676 23.0724 68.0894 23.3793 68.9356 23.3793C69.7818 23.3793 70.4953 23.0724 71.0761 22.4584C71.6734 21.8445 71.9721 21.0066 71.9721 19.9447ZM83.5631 8.47089V26.8887H79.3071V8.47089H83.5631ZM85.8011 19.9198C85.8011 18.4928 86.0666 17.2401 86.5976 16.1616C87.1451 15.083 87.8835 14.2534 88.8127 13.6727C89.7419 13.0919 90.7789 12.8016 91.9238 12.8016C92.9028 12.8016 93.7573 13.0007 94.4874 13.3989C95.234 13.7971 95.8065 14.3198 96.2047 14.9669V13.0007H100.461V26.8887H96.2047V24.9224C95.7899 25.5696 95.2091 26.0922 94.4625 26.4904C93.7324 26.8887 92.8779 27.0878 91.8989 27.0878C90.7706 27.0878 89.7419 26.7974 88.8127 26.2167C87.8835 25.6193 87.1451 24.7814 86.5976 23.7029C86.0666 22.6078 85.8011 21.3467 85.8011 19.9198ZM96.2047 19.9447C96.2047 18.8827 95.906 18.0448 95.3087 17.4309C94.728 16.817 94.0145 16.51 93.1682 16.51C92.322 16.51 91.6002 16.817 91.0029 17.4309C90.4222 18.0282 90.1318 18.8579 90.1318 19.9198C90.1318 20.9817 90.4222 21.8279 91.0029 22.4584C91.6002 23.0724 92.322 23.3793 93.1682 23.3793C94.0145 23.3793 94.728 23.0724 95.3087 22.4584C95.906 21.8445 96.2047 21.0066 96.2047 19.9447ZM107.796 8.47089V26.8887H103.54V8.47089H107.796Z" fill="white"/>
<path d="M136.167 9.41667L131.612 26.8887H126.46L123.673 15.39L120.786 26.8887H115.634L111.204 9.41667H115.758L118.272 22.1349L121.383 9.41667H126.062L129.049 22.1349L131.588 9.41667H136.167ZM137.455 19.9198C137.455 18.4928 137.721 17.2401 138.252 16.1616C138.799 15.083 139.538 14.2534 140.467 13.6727C141.396 13.0919 142.433 12.8016 143.578 12.8016C144.557 12.8016 145.411 13.0007 146.142 13.3989C146.888 13.7971 147.461 14.3198 147.859 14.9669V13.0007H152.115V26.8887H147.859V24.9224C147.444 25.5696 146.863 26.0922 146.117 26.4904C145.387 26.8887 144.532 27.0878 143.553 27.0878C142.425 27.0878 141.396 26.7974 140.467 26.2167C139.538 25.6193 138.799 24.7814 138.252 23.7029C137.721 22.6078 137.455 21.3467 137.455 19.9198ZM147.859 19.9447C147.859 18.8827 147.56 18.0448 146.963 17.4309C146.382 16.817 145.669 16.51 144.822 16.51C143.976 16.51 143.254 16.817 142.657 17.4309C142.076 18.0282 141.786 18.8579 141.786 19.9198C141.786 20.9817 142.076 21.8279 142.657 22.4584C143.254 23.0724 143.976 23.3793 144.822 23.3793C145.669 23.3793 146.382 23.0724 146.963 22.4584C147.56 21.8445 147.859 21.0066 147.859 19.9447ZM159.45 8.47089V26.8887H155.194V8.47089H159.45ZM166.79 8.47089V26.8887H162.534V8.47089H166.79ZM175.524 27.0878C174.313 27.0878 173.234 26.8804 172.289 26.4656C171.343 26.0507 170.596 25.4866 170.049 24.7731C169.501 24.043 169.194 23.23 169.128 22.334H173.334C173.384 22.8152 173.608 23.2051 174.006 23.5038C174.404 23.8024 174.894 23.9518 175.474 23.9518C176.005 23.9518 176.412 23.8522 176.694 23.6531C176.993 23.4374 177.142 23.1636 177.142 22.8318C177.142 22.4336 176.935 22.1432 176.52 21.9607C176.105 21.7616 175.433 21.5459 174.504 21.3136C173.508 21.0813 172.679 20.8407 172.015 20.5918C171.351 20.3263 170.779 19.9198 170.298 19.3722C169.816 18.8081 169.576 18.0531 169.576 17.1073C169.576 16.3109 169.791 15.5891 170.223 14.942C170.671 14.2783 171.318 13.7556 172.164 13.374C173.027 12.9924 174.047 12.8016 175.226 12.8016C176.968 12.8016 178.337 13.233 179.332 14.0958C180.344 14.9586 180.925 16.1035 181.074 17.5304H177.142C177.076 17.0493 176.86 16.6676 176.495 16.3856C176.146 16.1035 175.682 15.9624 175.101 15.9624C174.603 15.9624 174.222 16.062 173.956 16.2611C173.691 16.4436 173.558 16.7008 173.558 17.0327C173.558 17.4309 173.765 17.7296 174.18 17.9287C174.612 18.1278 175.275 18.3269 176.171 18.526C177.2 18.7915 178.038 19.057 178.685 19.3224C179.332 19.5713 179.896 19.9862 180.378 20.5669C180.875 21.131 181.133 21.8943 181.149 22.8567C181.149 23.6697 180.917 24.3998 180.452 25.0469C180.004 25.6774 179.349 26.1752 178.486 26.5402C177.64 26.9053 176.653 27.0878 175.524 27.0878Z" fill="#05DF8B"/>
</svg>
