<svg width="22" height="22" viewBox="0 0 22 22" fill="none" xmlns="http://www.w3.org/2000/svg">
<path d="M20.9736 1.0499C20.8762 0.758751 20.5843 0.467602 20.2923 0.370552C16.2046 -0.696998 12.0197 0.564651 9.19722 3.86435L8.12665 5.126L5.49887 4.5437C4.23364 4.05845 2.87109 4.64075 2.28714 5.80535L0.145988 9.59029C-0.0486626 9.88144 -0.0486626 10.1726 0.145988 10.4637C0.243313 10.7549 0.535288 10.949 0.827263 11.046L3.84434 11.7254C3.55237 12.5018 3.45504 13.2782 3.26039 14.0546C3.26039 14.3457 3.35772 14.6369 3.55237 14.831L6.56945 17.8395C6.7641 18.0336 6.95875 18.1307 7.25072 18.1307H7.34805C8.22397 18.0336 9.00257 17.9366 9.78118 17.6454L10.3651 20.5569C10.4625 20.8481 10.6571 21.1392 10.9491 21.2363C11.0464 21.3333 11.2411 21.3333 11.3384 21.3333C11.533 21.3333 11.6304 21.3333 11.825 21.2363L15.6207 19.1012C16.6913 18.5189 17.2752 17.1602 16.9832 15.8985L16.302 13.1811L17.4699 12.1136C20.6816 9.39619 22.0441 5.02895 20.9736 1.0499ZM6.08282 7.55225C5.49887 8.32865 4.91492 9.10504 4.52562 9.88144L2.48179 9.39619L3.94167 6.77585C4.13632 6.38765 4.52562 6.2906 5.01224 6.38765L6.66677 6.77585L6.08282 7.55225ZM14.5501 17.3543L11.9223 18.81L11.533 16.869C12.409 16.4808 13.1876 15.8985 13.8688 15.3162L14.5501 14.6369L14.9394 16.2867C15.1341 16.772 14.8421 17.2572 14.5501 17.3543ZM15.2314 7.55225C14.4528 7.55225 13.7715 6.8729 13.7715 6.0965C13.7715 5.3201 14.4528 4.64075 15.2314 4.64075C16.01 4.64075 16.6913 5.3201 16.6913 6.0965C16.6913 6.8729 16.1073 7.55225 15.2314 7.55225Z" fill="currentColor"/>
</svg>
