<svg width="36" height="36" viewBox="0 0 36 36" fill="none" xmlns="http://www.w3.org/2000/svg">
<rect x="1.33333" y="1.33333" width="33.3333" height="33.3333" rx="16.4444" fill="white"/>
<rect x="1.33333" y="1.33333" width="33.3333" height="33.3333" rx="16.4444" stroke="#D9D9D9" stroke-width="2.66667"/>
<mask id="mask0_1383_3966" style="mask-type:luminance" maskUnits="userSpaceOnUse" x="9" y="9" width="18" height="18">
<path d="M9 9H27V27H9V9Z" fill="white"/>
</mask>
<g mask="url(#mask0_1383_3966)">
<path d="M18 9C18.1989 9 18.3897 9.07902 18.5303 9.21967C18.671 9.36032 18.75 9.55109 18.75 9.75V12.75C18.75 12.9489 18.671 13.1397 18.5303 13.2803C18.3897 13.421 18.1989 13.5 18 13.5C17.8011 13.5 17.6103 13.421 17.4697 13.2803C17.329 13.1397 17.25 12.9489 17.25 12.75V9.75C17.25 9.55109 17.329 9.36032 17.4697 9.21967C17.6103 9.07902 17.8011 9 18 9ZM12.6967 11.6363C12.5553 11.4996 12.3658 11.424 12.1692 11.4257C11.9726 11.4275 11.7844 11.5063 11.6454 11.6454C11.5063 11.7844 11.4275 11.9726 11.4257 12.1692C11.424 12.3658 11.4996 12.5553 11.6363 12.6967L13.7572 14.8177C13.8987 14.9544 14.0882 15.03 14.2848 15.0283C14.4814 15.0265 14.6696 14.9477 14.8086 14.8086C14.9477 14.6696 15.0265 14.4814 15.0283 14.2848C15.03 14.0882 14.9544 13.8987 14.8177 13.7572L12.6967 11.6363ZM9.75 17.25C9.55109 17.25 9.36032 17.329 9.21967 17.4697C9.07902 17.6103 9 17.8011 9 18C9 18.1989 9.07902 18.3897 9.21967 18.5303C9.36032 18.671 9.55109 18.75 9.75 18.75H12.75C12.9489 18.75 13.1397 18.671 13.2803 18.5303C13.421 18.3897 13.5 18.1989 13.5 18C13.5 17.8011 13.421 17.6103 13.2803 17.4697C13.1397 17.329 12.9489 17.25 12.75 17.25H9.75ZM22.5 18C22.5 17.8011 22.579 17.6103 22.7197 17.4697C22.8603 17.329 23.0511 17.25 23.25 17.25H26.25C26.4489 17.25 26.6397 17.329 26.7803 17.4697C26.921 17.6103 27 17.8011 27 18C27 18.1989 26.921 18.3897 26.7803 18.5303C26.6397 18.671 26.4489 18.75 26.25 18.75H23.25C23.0511 18.75 22.8603 18.671 22.7197 18.5303C22.579 18.3897 22.5 18.1989 22.5 18ZM22.2428 21.1823C22.1013 21.0456 21.9118 20.97 21.7152 20.9717C21.5186 20.9735 21.3304 21.0523 21.1914 21.1914C21.0523 21.3304 20.9735 21.5186 20.9717 21.7152C20.97 21.9118 21.0456 22.1013 21.1823 22.2428L23.3032 24.3638C23.3724 24.4354 23.4552 24.4925 23.5467 24.5318C23.6382 24.5711 23.7366 24.5918 23.8362 24.5927C23.9358 24.5936 24.0345 24.5746 24.1267 24.5369C24.2189 24.4992 24.3026 24.4435 24.373 24.373C24.4435 24.3026 24.4992 24.2189 24.5369 24.1267C24.5746 24.0345 24.5936 23.9358 24.5927 23.8362C24.5918 23.7366 24.5711 23.6382 24.5318 23.5467C24.4925 23.4552 24.4354 23.3724 24.3638 23.3032L22.2428 21.1823ZM14.8177 22.2428C14.8894 22.1736 14.9465 22.0908 14.9858 21.9993C15.0251 21.9078 15.0458 21.8094 15.0467 21.7098C15.0476 21.6102 15.0286 21.5115 14.9909 21.4193C14.9532 21.3271 14.8975 21.2434 14.827 21.173C14.7566 21.1025 14.6729 21.0468 14.5807 21.0091C14.4885 20.9714 14.3898 20.9524 14.2902 20.9533C14.1906 20.9542 14.0922 20.9749 14.0007 21.0142C13.9092 21.0535 13.8264 21.1106 13.7572 21.1823L11.6363 23.3025C11.5646 23.3717 11.5075 23.4544 11.4682 23.5459C11.4289 23.6375 11.4082 23.7359 11.4073 23.8354C11.4064 23.935 11.4254 24.0338 11.4631 24.126C11.5008 24.2181 11.5565 24.3019 11.627 24.3723C11.6974 24.4427 11.7811 24.4984 11.8733 24.5361C11.9655 24.5738 12.0642 24.5928 12.1638 24.5919C12.2634 24.5911 12.3618 24.5704 12.4533 24.5311C12.5448 24.4918 12.6276 24.4346 12.6967 24.363L14.8177 22.2428ZM24.3638 12.6967C24.5004 12.5553 24.576 12.3658 24.5743 12.1692C24.5725 11.9726 24.4937 11.7844 24.3546 11.6454C24.2156 11.5063 24.0274 11.4275 23.8308 11.4257C23.6342 11.424 23.4447 11.4996 23.3032 11.6363L21.1823 13.7572C21.1106 13.8264 21.0535 13.9092 21.0142 14.0007C20.9749 14.0922 20.9542 14.1906 20.9533 14.2902C20.9524 14.3898 20.9714 14.4885 21.0091 14.5807C21.0468 14.6729 21.1025 14.7566 21.173 14.827C21.2434 14.8975 21.3271 14.9532 21.4193 14.9909C21.5115 15.0286 21.6102 15.0476 21.7098 15.0467C21.8094 15.0458 21.9078 15.0251 21.9993 14.9858C22.0908 14.9465 22.1736 14.8894 22.2428 14.8177L24.3638 12.6967ZM18.75 23.25C18.75 23.0511 18.671 22.8603 18.5303 22.7197C18.3897 22.579 18.1989 22.5 18 22.5C17.8011 22.5 17.6103 22.579 17.4697 22.7197C17.329 22.8603 17.25 23.0511 17.25 23.25V26.25C17.25 26.4489 17.329 26.6397 17.4697 26.7803C17.6103 26.921 17.8011 27 18 27C18.1989 27 18.3897 26.921 18.5303 26.7803C18.671 26.6397 18.75 26.4489 18.75 26.25V23.25ZM18 14.25C17.0054 14.25 16.0516 14.6451 15.3483 15.3483C14.6451 16.0516 14.25 17.0054 14.25 18C14.25 18.9946 14.6451 19.9484 15.3483 20.6517C16.0516 21.3549 17.0054 21.75 18 21.75C18.9946 21.75 19.9484 21.3549 20.6517 20.6517C21.3549 19.9484 21.75 18.9946 21.75 18C21.75 17.0054 21.3549 16.0516 20.6517 15.3483C19.9484 14.6451 18.9946 14.25 18 14.25Z" fill="#9D9488"/>
</g>
</svg>
