<svg width="22" height="13" viewBox="0 0 22 13" fill="none" xmlns="http://www.w3.org/2000/svg">
<path d="M21.3391 8.30724C21.3409 8.41082 21.3114 8.51253 21.2545 8.59907C21.1975 8.6856 21.1157 8.75292 21.0199 8.79222C20.924 8.83152 20.8186 8.84097 20.7172 8.81933C20.6159 8.79769 20.5235 8.74596 20.4521 8.67093L18.0703 6.28476L12.5662 11.0083C12.4257 11.1565 12.2565 11.2745 12.0689 11.3551C11.8813 11.4358 11.6793 11.4773 11.4751 11.4773C11.2709 11.4773 11.0689 11.4358 10.8813 11.3551C10.6937 11.2745 10.5245 11.1565 10.384 11.0083L7.06204 7.2206L1.14541 12.4099C1.09858 12.4592 1.04218 12.4986 0.979652 12.5255C0.917124 12.5523 0.849777 12.5662 0.781716 12.5662C0.713655 12.5662 0.646308 12.5523 0.58378 12.5255C0.521252 12.4986 0.464854 12.4592 0.418025 12.4099L0.156345 12.1482C0.106955 12.1013 0.0676218 12.0449 0.0407421 11.9824C0.0138625 11.9199 0 11.8525 0 11.7845C0 11.7164 0.0138625 11.6491 0.0407421 11.5865C0.0676218 11.524 0.106955 11.4676 0.156345 11.4208L5.9754 3.48168C6.11589 3.33351 6.28508 3.21551 6.47267 3.13487C6.66025 3.05423 6.86229 3.01264 7.06648 3.01264C7.27066 3.01264 7.4727 3.05423 7.66028 3.13487C7.84787 3.21551 8.01706 3.33351 8.15755 3.48168L11.4796 6.80368L14.8548 2.90953L12.6726 0.935839C12.6017 0.858955 12.5538 0.763701 12.5343 0.660915C12.5148 0.55813 12.5246 0.45194 12.5625 0.35443C12.6004 0.256919 12.6649 0.172004 12.7486 0.109346C12.8324 0.046687 12.9321 0.00880139 13.0363 0H20.3013C20.4386 0.00624756 20.5733 0.0395954 20.6977 0.0981231C20.8221 0.156651 20.9336 0.239202 21.026 0.341025C21.1183 0.442848 21.1896 0.561931 21.2357 0.691418C21.2819 0.820904 21.3019 0.958237 21.2948 1.09551L21.3391 8.30724Z" fill="#A8A299"/>
</svg>
