<svg preserveAspectRatio="none" width="100%" height="100%" overflow="visible" style="display: block;" viewBox="0 0 26.6348 26.6337" fill="none" xmlns="http://www.w3.org/2000/svg">
<g id="Add">
<circle id="Ellipse 35" cx="13.318" cy="13.3168" r="13.3168" fill="var(--fill-0, #2F4577)"/>
<path id="Plus" d="M13.3217 7.33367C13.7525 7.33392 14.102 7.6831 14.102 8.11394V12.5339H18.5219C18.9527 12.5341 19.3022 12.8833 19.3022 13.3141C19.302 13.7448 18.9525 14.0941 18.5219 14.0944H14.102V18.5192C14.1017 18.9498 13.7523 19.2992 13.3217 19.2995C12.8909 19.2995 12.5417 18.95 12.5415 18.5192V14.0944H8.11666C7.6858 14.0944 7.3366 13.7449 7.33638 13.3141C7.33638 12.8831 7.68567 12.5339 8.11666 12.5339H12.5415V8.11394C12.5415 7.68295 12.8907 7.33367 13.3217 7.33367Z" fill="var(--fill-0, white)"/>
</g>
</svg>
