<svg width="210" height="333" viewBox="0 0 210 333" fill="none" xmlns="http://www.w3.org/2000/svg">
<rect x="1.30687" y="1.30638" width="206.408" height="425.879" rx="40.4977" fill="#090909" stroke="#3A3E41" stroke-width="2.61276"/>
<rect x="65.3206" y="13.0635" width="78.3827" height="18.2893" rx="9.14465" fill="black"/>
<g opacity="0.99">
<rect x="70.8961" y="141.09" width="66.6501" height="66.6501" rx="7.0158" fill="black"/>
<path d="M90.0143 151.088V184.892L90.277 184.74L99.3981 179.474L99.486 179.424V168.627H108.957V179.424L109.045 179.474L118.166 184.74L118.428 184.892V151.088H127.548V197.613L104.309 184.196L104.221 184.146L104.133 184.196L80.8942 197.613V151.088H90.0143ZM108.957 151.088V160.559H99.486V151.088H108.957Z" fill="#05DF8B" stroke="#006837" stroke-width="0.35079"/>
</g>
<path d="M50.5617 234.858V219.435H53.8225V225.799H60.4422V219.435H63.6955V234.858H60.4422V228.487H53.8225V234.858H50.5617ZM69.6223 235.077C68.8842 235.077 68.2265 234.949 67.6492 234.693C67.0718 234.432 66.6149 234.048 66.2786 233.541C65.9472 233.028 65.7815 232.391 65.7815 231.628C65.7815 230.985 65.8995 230.445 66.1355 230.009C66.3714 229.572 66.6928 229.22 67.0994 228.954C67.5061 228.688 67.968 228.487 68.4851 228.352C69.0072 228.216 69.5545 228.121 70.1268 228.066C70.7996 227.995 71.3418 227.93 71.7535 227.87C72.1652 227.805 72.4639 227.709 72.6497 227.584C72.8354 227.458 72.9283 227.272 72.9283 227.026V226.981C72.9283 226.504 72.7777 226.135 72.4764 225.874C72.1802 225.613 71.7585 225.482 71.2113 225.482C70.6339 225.482 70.1745 225.611 69.8331 225.867C69.4917 226.118 69.2658 226.434 69.1553 226.815L66.1882 226.574C66.3388 225.872 66.635 225.264 67.0768 224.752C67.5186 224.235 68.0885 223.838 68.7863 223.562C69.4892 223.281 70.3025 223.14 71.2263 223.14C71.869 223.14 72.484 223.216 73.0714 223.366C73.6638 223.517 74.1885 223.75 74.6453 224.067C75.1072 224.383 75.4712 224.79 75.7373 225.287C76.0034 225.779 76.1364 226.369 76.1364 227.056V234.858H73.094V233.254H73.0036C72.8178 233.616 72.5693 233.935 72.2581 234.211C71.9468 234.482 71.5727 234.695 71.136 234.851C70.6992 235.001 70.1946 235.077 69.6223 235.077ZM70.541 232.863C71.013 232.863 71.4297 232.77 71.7911 232.584C72.1526 232.393 72.4363 232.137 72.6421 231.816C72.848 231.495 72.9509 231.131 72.9509 230.724V229.496C72.8505 229.562 72.7124 229.622 72.5367 229.677C72.366 229.727 72.1727 229.775 71.9568 229.82C71.7409 229.86 71.5251 229.898 71.3092 229.933C71.0933 229.963 70.8975 229.991 70.7218 230.016C70.3452 230.071 70.0164 230.159 69.7352 230.28C69.4541 230.4 69.2357 230.563 69.08 230.769C68.9244 230.97 68.8466 231.221 68.8466 231.522C68.8466 231.959 69.0047 232.293 69.321 232.524C69.6423 232.75 70.049 232.863 70.541 232.863ZM81.8335 219.435V234.858H78.6254V219.435H81.8335ZM87.7019 235.077C86.9639 235.077 86.3062 234.949 85.7289 234.693C85.1515 234.432 84.6946 234.048 84.3582 233.541C84.0269 233.028 83.8612 232.391 83.8612 231.628C83.8612 230.985 83.9792 230.445 84.2152 230.009C84.4511 229.572 84.7724 229.22 85.1791 228.954C85.5858 228.688 86.0477 228.487 86.5648 228.352C87.0869 228.216 87.6342 228.121 88.2065 228.066C88.8793 227.995 89.4215 227.93 89.8332 227.87C90.2449 227.805 90.5436 227.709 90.7293 227.584C90.9151 227.458 91.008 227.272 91.008 227.026V226.981C91.008 226.504 90.8574 226.135 90.5561 225.874C90.2599 225.613 89.8382 225.482 89.2909 225.482C88.7136 225.482 88.2542 225.611 87.9128 225.867C87.5714 226.118 87.3455 226.434 87.235 226.815L84.2679 226.574C84.4185 225.872 84.7147 225.264 85.1565 224.752C85.5983 224.235 86.1682 223.838 86.866 223.562C87.5689 223.281 88.3822 223.14 89.306 223.14C89.9486 223.14 90.5637 223.216 91.1511 223.366C91.7435 223.517 92.2681 223.75 92.725 224.067C93.1869 224.383 93.5509 224.79 93.817 225.287C94.0831 225.779 94.2161 226.369 94.2161 227.056V234.858H91.1737V233.254H91.0833C90.8975 233.616 90.649 233.935 90.3377 234.211C90.0265 234.482 89.6524 234.695 89.2156 234.851C88.7788 235.001 88.2743 235.077 87.7019 235.077ZM88.6207 232.863C89.0926 232.863 89.5093 232.77 89.8708 232.584C90.2323 232.393 90.516 232.137 90.7218 231.816C90.9276 231.495 91.0306 231.131 91.0306 230.724V229.496C90.9302 229.562 90.7921 229.622 90.6164 229.677C90.4457 229.727 90.2524 229.775 90.0365 229.82C89.8206 229.86 89.6047 229.898 89.3888 229.933C89.173 229.963 88.9772 229.991 88.8014 230.016C88.4249 230.071 88.096 230.159 87.8149 230.28C87.5337 230.4 87.3154 230.563 87.1597 230.769C87.0041 230.97 86.9263 231.221 86.9263 231.522C86.9263 231.959 87.0844 232.293 87.4007 232.524C87.722 232.75 88.1287 232.863 88.6207 232.863ZM99.9132 219.435V234.858H96.7051V219.435H99.9132Z" fill="white"/>
<path d="M107.075 234.858L102.662 219.435H106.224L108.777 230.152H108.905L111.722 219.435H114.772L117.581 230.174H117.717L120.269 219.435H123.832L119.418 234.858H116.24L113.303 224.775H113.183L110.253 234.858H107.075ZM127.572 235.077C126.834 235.077 126.177 234.949 125.599 234.693C125.022 234.432 124.565 234.048 124.229 233.541C123.897 233.028 123.732 232.391 123.732 231.628C123.732 230.985 123.85 230.445 124.086 230.009C124.322 229.572 124.643 229.22 125.05 228.954C125.456 228.688 125.918 228.487 126.435 228.352C126.957 228.216 127.505 228.121 128.077 228.066C128.75 227.995 129.292 227.93 129.704 227.87C130.115 227.805 130.414 227.709 130.6 227.584C130.786 227.458 130.879 227.272 130.879 227.026V226.981C130.879 226.504 130.728 226.135 130.427 225.874C130.13 225.613 129.709 225.482 129.162 225.482C128.584 225.482 128.125 225.611 127.783 225.867C127.442 226.118 127.216 226.434 127.106 226.815L124.138 226.574C124.289 225.872 124.585 225.264 125.027 224.752C125.469 224.235 126.039 223.838 126.737 223.562C127.439 223.281 128.253 223.14 129.177 223.14C129.819 223.14 130.434 223.216 131.022 223.366C131.614 223.517 132.139 223.75 132.596 224.067C133.057 224.383 133.421 224.79 133.688 225.287C133.954 225.779 134.087 226.369 134.087 227.056V234.858H131.044V233.254H130.954C130.768 233.616 130.52 233.935 130.208 234.211C129.897 234.482 129.523 234.695 129.086 234.851C128.649 235.001 128.145 235.077 127.572 235.077ZM128.491 232.863C128.963 232.863 129.38 232.77 129.741 232.584C130.103 232.393 130.387 232.137 130.592 231.816C130.798 231.495 130.901 231.131 130.901 230.724V229.496C130.801 229.562 130.663 229.622 130.487 229.677C130.316 229.727 130.123 229.775 129.907 229.82C129.691 229.86 129.475 229.898 129.259 229.933C129.044 229.963 128.848 229.991 128.672 230.016C128.295 230.071 127.967 230.159 127.685 230.28C127.404 230.4 127.186 230.563 127.03 230.769C126.875 230.97 126.797 231.221 126.797 231.522C126.797 231.959 126.955 232.293 127.271 232.524C127.593 232.75 127.999 232.863 128.491 232.863ZM139.784 219.435V234.858H136.576V219.435H139.784ZM145.562 219.435V234.858H142.354V219.435H145.562ZM157.756 226.59L154.819 226.77C154.769 226.519 154.661 226.293 154.495 226.092C154.33 225.887 154.111 225.723 153.84 225.603C153.574 225.477 153.255 225.415 152.884 225.415C152.387 225.415 151.967 225.52 151.626 225.731C151.285 225.937 151.114 226.213 151.114 226.559C151.114 226.836 151.224 227.069 151.445 227.26C151.666 227.451 152.045 227.604 152.582 227.719L154.676 228.141C155.801 228.372 156.639 228.743 157.191 229.255C157.744 229.768 158.02 230.44 158.02 231.274C158.02 232.032 157.796 232.697 157.349 233.269C156.908 233.842 156.3 234.289 155.527 234.61C154.759 234.926 153.873 235.084 152.869 235.084C151.337 235.084 150.117 234.766 149.209 234.128C148.305 233.485 147.775 232.612 147.62 231.507L150.775 231.341C150.87 231.808 151.101 232.165 151.468 232.411C151.834 232.652 152.304 232.772 152.876 232.772C153.438 232.772 153.89 232.664 154.232 232.449C154.578 232.228 154.754 231.944 154.759 231.598C154.754 231.306 154.631 231.068 154.39 230.882C154.149 230.691 153.777 230.546 153.275 230.445L151.272 230.046C150.142 229.82 149.302 229.429 148.749 228.871C148.202 228.314 147.928 227.604 147.928 226.74C147.928 225.997 148.129 225.357 148.531 224.82C148.938 224.283 149.507 223.868 150.24 223.577C150.978 223.286 151.842 223.14 152.831 223.14C154.292 223.14 155.442 223.449 156.28 224.067C157.124 224.684 157.616 225.525 157.756 226.59Z" fill="#05DF8B"/>
</svg>
