<svg width="25" height="25" viewBox="0 0 25 25" fill="none" xmlns="http://www.w3.org/2000/svg">
<path d="M16.4125 12.0732L23.787 19.4477C24.2661 19.9268 24.2661 20.7046 23.787 21.1837L21.1849 23.7858C20.7058 24.2649 19.9292 24.2649 19.4489 23.7858L12.0732 16.4113L4.69741 23.7858C4.21835 24.2649 3.4417 24.2649 2.96264 23.7858L0.359292 21.1837C-0.119764 20.7046 -0.119764 19.928 0.359292 19.4477L7.73505 12.0732L0.359292 4.69741C-0.119764 4.21835 -0.119764 3.44049 0.359292 2.96143L2.96385 0.359292C3.44291 -0.119764 4.21956 -0.119764 4.69862 0.359292L12.0732 7.73505L19.4489 0.359292C19.928 -0.119764 20.7046 -0.119764 21.1849 0.359292L23.787 2.96265C24.2661 3.4417 24.2661 4.21835 23.787 4.69862L16.4125 12.0732Z" fill="#E7E8E8"/>
</svg>
