<svg width="165" height="128" viewBox="0 0 165 128" fill="none" xmlns="http://www.w3.org/2000/svg">
<g opacity="0.8">
<path d="M43.5495 36.1009L63.9646 7.97452L34.7083 0.135306C33.141 -0.284652 31.2937 0.34026 29.9689 1.10516L2.79957 25.182L43.5495 36.1009Z" fill="#05DF8B"/>
<path d="M-0.000146534 35.6307L47.4684 138.501L40.7498 46.5496L-0.000146534 35.6307Z" fill="#05DF8B"/>
<path d="M113.033 54.7191L109.416 20.1533L74.9358 10.9142L54.5206 39.0406L113.033 54.7191Z" fill="#05DF8B"/>
<path d="M51.7209 49.4893L58.5795 140.918L110.234 65.1678L51.7209 49.4893Z" fill="#05DF8B"/>
<path d="M164.754 68.5777L153.263 34.1418C152.499 32.817 151.211 31.3522 149.644 30.9322L120.388 23.093L124.004 57.6588L164.754 68.5777Z" fill="#05DF8B"/>
<path d="M121.205 68.1075L69.4106 144.38L161.955 79.0264L121.205 68.1075Z" fill="#05DF8B"/>
</g>
</svg>
