<svg width="35" height="35" viewBox="0 0 35 35" fill="none" xmlns="http://www.w3.org/2000/svg">
<rect width="34.46" height="34.4585" rx="5.16877" fill="#323639"/>
<g clip-path="url(#clip0_2647_3695)">
<path fill-rule="evenodd" clip-rule="evenodd" d="M11.0176 12.592C10.625 13.3626 10.625 14.3714 10.625 16.389V18.0701C10.625 20.0877 10.625 21.0965 11.0176 21.867C11.363 22.5449 11.9141 23.096 12.592 23.4414C13.3626 23.8341 14.3714 23.8341 16.389 23.8341H18.0701C20.0877 23.8341 21.0965 23.8341 21.867 23.4414C22.5449 23.096 23.096 22.5449 23.4414 21.867C23.8341 21.0965 23.8341 20.0877 23.8341 18.0701V16.389C23.8341 14.3714 23.8341 13.3626 23.4414 12.592C23.096 11.9141 22.5449 11.363 21.867 11.0176C21.0965 10.625 20.0877 10.625 18.0701 10.625H16.389C14.3714 10.625 13.3626 10.625 12.592 11.0176C11.9141 11.363 11.363 11.9141 11.0176 12.592ZM18.0701 11.8258H16.389C15.3604 11.8258 14.6611 11.8268 14.1206 11.8709C13.5942 11.9139 13.325 11.9919 13.1371 12.0876C12.6852 12.3178 12.3178 12.6852 12.0876 13.1371C11.9919 13.325 11.9139 13.5942 11.8709 14.1206C11.8268 14.6611 11.8258 15.3604 11.8258 16.389V18.0701C11.8258 19.0987 11.8268 19.7979 11.8709 20.3384C11.9139 20.8649 11.9919 21.1341 12.0876 21.3219C12.3178 21.7738 12.6852 22.1412 13.1371 22.3715C13.325 22.4672 13.5942 22.5452 14.1206 22.5881C14.6611 22.6323 15.3604 22.6332 16.389 22.6332H18.0701C19.0987 22.6332 19.7979 22.6323 20.3384 22.5881C20.8649 22.5452 21.1341 22.4672 21.3219 22.3715C21.7738 22.1412 22.1412 21.7738 22.3715 21.3219C22.4672 21.1341 22.5452 20.8649 22.5881 20.3384C22.6323 19.7979 22.6332 19.0987 22.6332 18.0701V16.389C22.6332 15.3604 22.6323 14.6611 22.5881 14.1206C22.5452 13.5942 22.4672 13.325 22.3715 13.1371C22.1412 12.6852 21.7738 12.3178 21.3219 12.0876C21.1341 11.9919 20.8649 11.9139 20.3384 11.8709C19.7979 11.8268 19.0987 11.8258 18.0701 11.8258Z" fill="#A8A299"/>
<path fill-rule="evenodd" clip-rule="evenodd" d="M17.23 20.5323C19.0538 20.5323 20.5323 19.0538 20.5323 17.23C20.5323 15.4062 19.0538 13.9277 17.23 13.9277C15.4062 13.9277 13.9277 15.4062 13.9277 17.23C13.9277 19.0538 15.4062 20.5323 17.23 20.5323ZM17.23 19.4315C18.4458 19.4315 19.4315 18.4458 19.4315 17.23C19.4315 16.0141 18.4458 15.0285 17.23 15.0285C16.0141 15.0285 15.0285 16.0141 15.0285 17.23C15.0285 18.4458 16.0141 19.4315 17.23 19.4315Z" fill="#A8A299"/>
<path d="M20.5308 13.377C20.2269 13.377 19.9805 13.6234 19.9805 13.9273C19.9805 14.2313 20.2269 14.4777 20.5308 14.4777C20.8348 14.4777 21.0812 14.2313 21.0812 13.9273C21.0812 13.6234 20.8348 13.377 20.5308 13.377Z" fill="#A8A299"/>
</g>
<defs>
<clipPath id="clip0_2647_3695">
<rect width="13.2091" height="13.2091" fill="white" transform="translate(10.625 10.625)"/>
</clipPath>
</defs>
</svg>
