<svg width="35" height="35" viewBox="0 0 35 35" fill="none" xmlns="http://www.w3.org/2000/svg">
<rect width="34.46" height="34.4585" rx="5.16877" fill="#323639"/>
<path d="M7.20438 16.6907V20.7295H5.54884V13.3341L11.1659 17.7186V13.6798H12.8214V21.0706L7.20438 16.6907ZM14.2064 13.6798H20.6421V15.067H15.0296V19.3423H20.6421V20.7295H14.2064C13.976 20.7295 13.7789 20.6476 13.6152 20.4839C13.4514 20.3202 13.3696 20.1231 13.3696 19.8926V14.5167C13.3696 14.2892 13.4514 14.0937 13.6152 13.9299C13.7789 13.7632 13.976 13.6798 14.2064 13.6798ZM22.8458 16.6907V20.7295H21.1903V13.3341L26.8073 17.7186V13.6798H28.4628V21.0706L22.8458 16.6907Z" fill="#A8A299"/>
</svg>
