<svg width="130" height="39" viewBox="0 0 130 39" fill="none" xmlns="http://www.w3.org/2000/svg">
<rect x="0.220244" y="0.220244" width="129.56" height="38.3907" rx="4.00054" fill="black"/>
<rect x="0.220244" y="0.220244" width="129.56" height="38.3907" rx="4.00054" stroke="#3A3E41" stroke-width="0.440487"/>
<g clip-path="url(#clip0_2647_3658)">
<path d="M24.3212 14.3403L10.5833 6.48847C10.4107 6.38823 10.1935 6.3938 10.0265 6.49403C9.85385 6.59427 9.74805 6.77247 9.74805 6.97294C9.74805 6.97294 9.75362 7.69686 9.75918 8.88855L19.766 18.8954L24.3212 14.3403Z" fill="url(#paint0_linear_2647_3658)"/>
<path d="M9.75879 8.88867C9.77549 13.1877 9.82561 23.6233 9.84789 28.8188L19.7712 18.8955L9.75879 8.88867Z" fill="url(#paint1_linear_2647_3658)"/>
<path d="M32.1844 18.8337L24.3215 14.3398L19.7607 18.895L24.9062 24.0404L32.19 19.7971C32.3626 19.6969 32.4684 19.5131 32.4684 19.3182C32.4684 19.1177 32.357 18.934 32.1844 18.8337Z" fill="url(#paint2_linear_2647_3658)"/>
<path d="M9.84277 28.8191C9.85391 30.6735 9.85948 31.8596 9.85948 31.8596C9.85948 32.0601 9.96528 32.2438 10.1379 32.3385C10.3105 32.4387 10.5221 32.4387 10.6948 32.3385L24.9115 24.0468L19.7661 18.9014L9.84277 28.8191Z" fill="url(#paint3_linear_2647_3658)"/>
</g>
<path d="M51.2544 24.1857C51.1738 23.9245 51.0625 23.6907 50.9207 23.4843C50.782 23.2747 50.6143 23.0957 50.4176 22.9474C50.2241 22.799 50.0016 22.6878 49.7501 22.6136C49.4985 22.5362 49.2244 22.4975 48.9277 22.4975C48.3956 22.4975 47.9216 22.6313 47.5056 22.899C47.0896 23.1666 46.7623 23.5601 46.5237 24.0793C46.2882 24.5952 46.1705 25.2241 46.1705 25.9658C46.1705 26.7139 46.2882 27.3476 46.5237 27.8668C46.7591 28.386 47.0864 28.781 47.5056 29.0519C47.9248 29.3195 48.4118 29.4534 48.9664 29.4534C49.4695 29.4534 49.9048 29.3566 50.2725 29.1631C50.6433 28.9697 50.9287 28.6955 51.1286 28.3408C51.3286 27.9829 51.4286 27.5636 51.4286 27.0832L51.8349 27.146H49.1454V25.7433H53.1651V26.9332C53.1651 27.7813 52.9845 28.515 52.6233 29.1341C52.2622 29.7533 51.7655 30.2305 51.1335 30.5659C50.5014 30.8981 49.7759 31.0642 48.9568 31.0642C48.0441 31.0642 47.2428 30.8594 46.5527 30.4498C45.8658 30.0371 45.3289 29.4518 44.9419 28.6939C44.5581 27.9329 44.3663 27.0299 44.3663 25.9851C44.3663 25.1854 44.4791 24.4711 44.7049 23.8422C44.9338 23.2134 45.2531 22.6797 45.6626 22.2411C46.0722 21.7993 46.5527 21.464 47.1041 21.235C47.6556 21.0028 48.2554 20.8867 48.9035 20.8867C49.4518 20.8867 49.9629 20.9673 50.4369 21.1286C50.911 21.2866 51.3318 21.5123 51.6994 21.8058C52.0703 22.0992 52.375 22.4475 52.6137 22.8506C52.8523 23.2537 53.0087 23.6987 53.0829 24.1857H51.2544ZM58.064 31.0738C57.3384 31.0738 56.7095 30.9142 56.1775 30.5949C55.6454 30.2757 55.2326 29.8291 54.9391 29.255C54.6489 28.681 54.5038 28.0103 54.5038 27.2428C54.5038 26.4753 54.6489 25.8029 54.9391 25.2257C55.2326 24.6484 55.6454 24.2002 56.1775 23.8809C56.7095 23.5617 57.3384 23.4021 58.064 23.4021C58.7895 23.4021 59.4184 23.5617 59.9505 23.8809C60.4826 24.2002 60.8937 24.6484 61.1839 25.2257C61.4774 25.8029 61.6241 26.4753 61.6241 27.2428C61.6241 28.0103 61.4774 28.681 61.1839 29.255C60.8937 29.8291 60.4826 30.2757 59.9505 30.5949C59.4184 30.9142 58.7895 31.0738 58.064 31.0738ZM58.0736 29.671C58.4671 29.671 58.796 29.563 59.0604 29.347C59.3249 29.1277 59.5216 28.8342 59.6506 28.4666C59.7828 28.099 59.8489 27.6894 59.8489 27.2379C59.8489 26.7832 59.7828 26.3721 59.6506 26.0045C59.5216 25.6336 59.3249 25.3385 59.0604 25.1193C58.796 24.9 58.4671 24.7903 58.0736 24.7903C57.6705 24.7903 57.3352 24.9 57.0675 25.1193C56.8031 25.3385 56.6047 25.6336 56.4725 26.0045C56.3435 26.3721 56.279 26.7832 56.279 27.2379C56.279 27.6894 56.3435 28.099 56.4725 28.4666C56.6047 28.8342 56.8031 29.1277 57.0675 29.347C57.3352 29.563 57.6705 29.671 58.0736 29.671ZM66.3513 31.0738C65.6257 31.0738 64.9969 30.9142 64.4648 30.5949C63.9327 30.2757 63.5199 29.8291 63.2264 29.255C62.9362 28.681 62.7911 28.0103 62.7911 27.2428C62.7911 26.4753 62.9362 25.8029 63.2264 25.2257C63.5199 24.6484 63.9327 24.2002 64.4648 23.8809C64.9969 23.5617 65.6257 23.4021 66.3513 23.4021C67.0768 23.4021 67.7057 23.5617 68.2378 23.8809C68.7699 24.2002 69.181 24.6484 69.4712 25.2257C69.7647 25.8029 69.9114 26.4753 69.9114 27.2428C69.9114 28.0103 69.7647 28.681 69.4712 29.255C69.181 29.8291 68.7699 30.2757 68.2378 30.5949C67.7057 30.9142 67.0768 31.0738 66.3513 31.0738ZM66.3609 29.671C66.7544 29.671 67.0833 29.563 67.3477 29.347C67.6122 29.1277 67.8089 28.8342 67.9379 28.4666C68.0701 28.099 68.1362 27.6894 68.1362 27.2379C68.1362 26.7832 68.0701 26.3721 67.9379 26.0045C67.8089 25.6336 67.6122 25.3385 67.3477 25.1193C67.0833 24.9 66.7544 24.7903 66.3609 24.7903C65.9578 24.7903 65.6225 24.9 65.3548 25.1193C65.0904 25.3385 64.892 25.6336 64.7598 26.0045C64.6308 26.3721 64.5663 26.7832 64.5663 27.2379C64.5663 27.6894 64.6308 28.099 64.7598 28.4666C64.892 28.8342 65.0904 29.1277 65.3548 29.347C65.6225 29.563 65.9578 29.671 66.3609 29.671ZM74.6289 33.8697C74.0001 33.8697 73.4599 33.7843 73.0084 33.6133C72.557 33.4457 72.1942 33.2199 71.9201 32.9361C71.646 32.6524 71.4557 32.3379 71.3493 31.9929L72.9262 31.6108C72.9971 31.7559 73.1003 31.8994 73.2358 32.0413C73.3712 32.1864 73.5534 32.3057 73.7824 32.3992C74.0146 32.496 74.3064 32.5443 74.6579 32.5443C75.1545 32.5443 75.5657 32.4234 75.8914 32.1815C76.2171 31.9429 76.38 31.5495 76.38 31.0013V29.5936H76.2929C76.2026 29.7742 76.0704 29.9597 75.8962 30.1499C75.7253 30.3402 75.498 30.4998 75.2142 30.6288C74.9336 30.7578 74.5805 30.8223 74.1548 30.8223C73.5841 30.8223 73.0665 30.6885 72.6021 30.4208C72.141 30.1499 71.7733 29.7468 71.4992 29.2115C71.2284 28.673 71.0929 27.999 71.0929 27.1896C71.0929 26.3737 71.2284 25.6852 71.4992 25.1241C71.7733 24.5598 72.1426 24.1325 72.6069 23.8422C73.0713 23.5488 73.5889 23.4021 74.1597 23.4021C74.595 23.4021 74.953 23.4762 75.2335 23.6246C75.5173 23.7697 75.7431 23.9454 75.9107 24.1518C76.0784 24.355 76.2058 24.5469 76.2929 24.7274H76.3896V23.4988H78.1165V31.0496C78.1165 31.6849 77.9649 32.2106 77.6618 32.6266C77.3587 33.0426 76.9443 33.3538 76.4186 33.5601C75.893 33.7665 75.2964 33.8697 74.6289 33.8697ZM74.6434 29.4485C75.0143 29.4485 75.3303 29.3582 75.5915 29.1777C75.8527 28.9971 76.051 28.7375 76.1865 28.3989C76.3219 28.0603 76.3896 27.6539 76.3896 27.1799C76.3896 26.7123 76.3219 26.3028 76.1865 25.9512C76.0542 25.5997 75.8575 25.3273 75.5963 25.1338C75.3383 24.9371 75.0207 24.8387 74.6434 24.8387C74.2532 24.8387 73.9275 24.9403 73.6663 25.1434C73.4051 25.3466 73.2084 25.6255 73.0762 25.9803C72.9439 26.3318 72.8778 26.7316 72.8778 27.1799C72.8778 27.6346 72.9439 28.0329 73.0762 28.3747C73.2116 28.7133 73.4099 28.9777 73.6711 29.168C73.9356 29.355 74.2597 29.4485 74.6434 29.4485ZM81.6622 21.0222V30.9287H79.9111V21.0222H81.6622ZM86.7521 31.0738C86.0072 31.0738 85.3638 30.919 84.822 30.6095C84.2835 30.2967 83.8691 29.8549 83.5789 29.2841C83.2887 28.7101 83.1435 28.0345 83.1435 27.2573C83.1435 26.493 83.2887 25.8223 83.5789 25.245C83.8723 24.6646 84.2819 24.2131 84.8075 23.8906C85.3332 23.5649 85.9507 23.4021 86.6602 23.4021C87.1181 23.4021 87.5502 23.4762 87.9565 23.6246C88.3661 23.7697 88.7273 23.9954 89.0401 24.3018C89.3561 24.6081 89.6044 24.9983 89.785 25.4724C89.9656 25.9432 90.0559 26.5043 90.0559 27.1557V27.6926H83.9659V26.5124H88.3774C88.3741 26.177 88.3016 25.8787 88.1597 25.6175C88.0178 25.3531 87.8195 25.1451 87.5647 24.9935C87.3132 24.8419 87.0197 24.7661 86.6844 24.7661C86.3264 24.7661 86.012 24.8532 85.7411 25.0273C85.4702 25.1983 85.259 25.424 85.1074 25.7046C84.9591 25.9819 84.8833 26.2866 84.8801 26.6188V27.6491C84.8801 28.0812 84.9591 28.4521 85.1171 28.7617C85.2751 29.068 85.496 29.3034 85.7798 29.4679C86.0636 29.6291 86.3957 29.7097 86.7763 29.7097C87.031 29.7097 87.2616 29.6743 87.468 29.6033C87.6744 29.5292 87.8533 29.4211 88.0049 29.2792C88.1565 29.1373 88.271 28.9616 88.3484 28.752L89.9833 28.9358C89.8801 29.3679 89.6834 29.7452 89.3932 30.0677C89.1062 30.3869 88.7385 30.6353 88.2903 30.8126C87.8421 30.9868 87.3293 31.0738 86.7521 31.0738ZM94.9934 30.9287V21.0222H98.7084C99.4694 21.0222 100.108 21.1641 100.624 21.4478C101.143 21.7316 101.535 22.1218 101.799 22.6184C102.067 23.1118 102.201 23.6729 102.201 24.3018C102.201 24.9371 102.067 25.5014 101.799 25.9948C101.532 26.4882 101.137 26.8768 100.614 27.1605C100.092 27.4411 99.4485 27.5814 98.6842 27.5814H96.2221V26.106H98.4423C98.8874 26.106 99.2518 26.0286 99.5355 25.8739C99.8193 25.7191 100.029 25.5062 100.164 25.2353C100.303 24.9645 100.372 24.6533 100.372 24.3018C100.372 23.9503 100.303 23.6407 100.164 23.373C100.029 23.1054 99.8177 22.8974 99.5307 22.749C99.2469 22.5975 98.8809 22.5217 98.4327 22.5217H96.788V30.9287H94.9934ZM105.433 21.0222V30.9287H103.682V21.0222H105.433ZM109.372 31.0787C108.901 31.0787 108.477 30.9948 108.1 30.8271C107.726 30.6562 107.429 30.4047 107.21 30.0725C106.994 29.7404 106.886 29.3308 106.886 28.8439C106.886 28.4247 106.963 28.078 107.118 27.8039C107.273 27.5298 107.484 27.3105 107.752 27.146C108.019 26.9816 108.321 26.8574 108.656 26.7736C108.995 26.6865 109.345 26.6236 109.706 26.5849C110.141 26.5398 110.494 26.4995 110.765 26.464C111.036 26.4253 111.233 26.3672 111.355 26.2899C111.481 26.2092 111.544 26.0851 111.544 25.9174V25.8884C111.544 25.524 111.436 25.2418 111.22 25.0419C111.004 24.8419 110.693 24.742 110.286 24.742C109.857 24.742 109.517 24.8355 109.266 25.0225C109.017 25.2095 108.85 25.4304 108.762 25.6852L107.128 25.453C107.256 25.0015 107.469 24.6242 107.766 24.3211C108.063 24.0148 108.425 23.7858 108.854 23.6342C109.283 23.4794 109.757 23.4021 110.277 23.4021C110.634 23.4021 110.991 23.444 111.346 23.5278C111.7 23.6117 112.024 23.7503 112.318 23.9438C112.611 24.1341 112.847 24.3937 113.024 24.7226C113.205 25.0515 113.295 25.4627 113.295 25.9561V30.9287H111.612V29.9081H111.554C111.447 30.1145 111.297 30.3079 111.104 30.4885C110.913 30.6659 110.673 30.8094 110.383 30.919C110.096 31.0255 109.759 31.0787 109.372 31.0787ZM109.827 29.792C110.178 29.792 110.483 29.7226 110.741 29.584C110.999 29.4421 111.197 29.255 111.336 29.0229C111.478 28.7907 111.549 28.5375 111.549 28.2634V27.3879C111.494 27.433 111.4 27.475 111.268 27.5137C111.139 27.5524 110.994 27.5862 110.833 27.6152C110.672 27.6443 110.512 27.6701 110.354 27.6926C110.196 27.7152 110.059 27.7346 109.943 27.7507C109.682 27.7862 109.448 27.8442 109.241 27.9248C109.035 28.0054 108.872 28.1183 108.753 28.2634C108.633 28.4053 108.574 28.5891 108.574 28.8149C108.574 29.1373 108.692 29.3808 108.927 29.5453C109.162 29.7097 109.462 29.792 109.827 29.792ZM115.878 33.7149C115.639 33.7149 115.418 33.6956 115.215 33.6569C115.015 33.6214 114.856 33.5795 114.736 33.5311L115.143 32.167C115.397 32.2412 115.625 32.2767 115.825 32.2734C116.025 32.2702 116.2 32.2073 116.352 32.0848C116.507 31.9655 116.637 31.7655 116.744 31.485L116.894 31.0835L114.199 23.4988H116.057L117.769 29.1099H117.847L119.564 23.4988H121.426L118.451 31.8284C118.313 32.2219 118.129 32.5588 117.9 32.8394C117.671 33.1232 117.39 33.3392 117.058 33.4876C116.729 33.6391 116.336 33.7149 115.878 33.7149Z" fill="#F8F8F8"/>
<path opacity="0.6" d="M49.4877 10.063C49.425 9.85987 49.3385 9.67803 49.2281 9.51751C49.1202 9.35448 48.9898 9.21527 48.8368 9.0999C48.6863 8.98452 48.5133 8.89799 48.3176 8.8403C48.122 8.78011 47.9088 8.75001 47.678 8.75001C47.2642 8.75001 46.8955 8.8541 46.5719 9.06228C46.2484 9.27045 45.9938 9.57645 45.8082 9.98027C45.6251 10.3816 45.5336 10.8707 45.5336 11.4475C45.5336 12.0294 45.6251 12.5223 45.8082 12.9261C45.9913 13.3299 46.2459 13.6372 46.5719 13.8479C46.898 14.056 47.2767 14.1601 47.7081 14.1601C48.0994 14.1601 48.438 14.0849 48.724 13.9344C49.0124 13.7839 49.2344 13.5707 49.3899 13.2948C49.5454 13.0164 49.6231 12.6903 49.6231 12.3166L49.9392 12.3655H47.8473V11.2745H50.9738V12.2C50.9738 12.8596 50.8333 13.4303 50.5524 13.9118C50.2715 14.3934 49.8852 14.7646 49.3936 15.0254C48.902 15.2838 48.3377 15.413 47.7006 15.413C46.9908 15.413 46.3675 15.2537 45.8308 14.9352C45.2965 14.6141 44.8789 14.1589 44.5779 13.5695C44.2795 12.9775 44.1302 12.2752 44.1302 11.4626C44.1302 10.8406 44.218 10.285 44.3936 9.79592C44.5717 9.30682 44.82 8.89172 45.1385 8.55061C45.4571 8.20699 45.8308 7.94614 46.2597 7.76806C46.6886 7.58747 47.1551 7.49718 47.6592 7.49718C48.0856 7.49718 48.4832 7.55988 48.8519 7.68529C49.2206 7.80819 49.5479 7.98376 49.8338 8.21201C50.1223 8.44025 50.3593 8.71113 50.5449 9.02465C50.7305 9.33818 50.8521 9.6843 50.9098 10.063H49.4877ZM54.8216 15.4205C54.2422 15.4205 53.7419 15.3001 53.3205 15.0593C52.9016 14.816 52.5793 14.4724 52.3536 14.0285C52.1279 13.582 52.015 13.0565 52.015 12.4521C52.015 11.8576 52.1279 11.3359 52.3536 10.887C52.5818 10.4355 52.9004 10.0844 53.3092 9.83354C53.718 9.58021 54.1983 9.45355 54.7501 9.45355C55.1063 9.45355 55.4424 9.51124 55.7584 9.62661C56.077 9.73948 56.3579 9.91505 56.6012 10.1533C56.847 10.3916 57.0401 10.6951 57.1806 11.0638C57.321 11.43 57.3912 11.8664 57.3912 12.3731V12.7907H52.6546V11.8727H56.0857C56.0832 11.6118 56.0268 11.3798 55.9164 11.1767C55.8061 10.971 55.6518 10.8092 55.4537 10.6913C55.258 10.5734 55.0298 10.5145 54.769 10.5145C54.4905 10.5145 54.246 10.5822 54.0353 10.7177C53.8246 10.8506 53.6603 11.0262 53.5425 11.2444C53.4271 11.4601 53.3681 11.6971 53.3656 11.9554V12.7568C53.3656 13.0929 53.4271 13.3813 53.55 13.6221C53.6729 13.8604 53.8447 14.0435 54.0654 14.1714C54.2861 14.2968 54.5445 14.3595 54.8404 14.3595C55.0386 14.3595 55.2179 14.3319 55.3784 14.2768C55.539 14.2191 55.6782 14.135 55.796 14.0247C55.9139 13.9143 56.003 13.7776 56.0632 13.6146L57.3348 13.7576C57.2545 14.0937 57.1015 14.3871 56.8758 14.6379C56.6526 14.8862 56.3667 15.0794 56.018 15.2173C55.6694 15.3528 55.2706 15.4205 54.8216 15.4205ZM61.4291 9.5288V10.5822H58.107V9.5288H61.4291ZM58.9272 8.14429H60.2891V13.5695C60.2891 13.7526 60.3167 13.893 60.3719 13.9908C60.4296 14.0861 60.5048 14.1514 60.5976 14.1865C60.6904 14.2216 60.7933 14.2391 60.9061 14.2391C60.9914 14.2391 61.0692 14.2329 61.1394 14.2203C61.2121 14.2078 61.2673 14.1965 61.3049 14.1865L61.5344 15.2512C61.4617 15.2763 61.3576 15.3039 61.2222 15.334C61.0892 15.3641 60.9262 15.3816 60.7331 15.3866C60.392 15.3967 60.0847 15.3452 59.8113 15.2324C59.5379 15.117 59.321 14.9389 59.1604 14.6981C59.0024 14.4573 58.9247 14.1564 58.9272 13.7952V8.14429ZM65.196 15.3076V9.5288H66.558V15.3076H65.196ZM65.8808 8.70862C65.6651 8.70862 65.4795 8.63714 65.324 8.49418C65.1684 8.3487 65.0907 8.17438 65.0907 7.97122C65.0907 7.76555 65.1684 7.59124 65.324 7.44827C65.4795 7.3028 65.6651 7.23006 65.8808 7.23006C66.099 7.23006 66.2846 7.3028 66.4376 7.44827C66.5931 7.59124 66.6708 7.76555 66.6708 7.97122C66.6708 8.17438 66.5931 8.3487 66.4376 8.49418C66.2846 8.63714 66.099 8.70862 65.8808 8.70862ZM70.8441 9.5288V10.5822H67.5221V9.5288H70.8441ZM68.3422 8.14429H69.7042V13.5695C69.7042 13.7526 69.7317 13.893 69.7869 13.9908C69.8446 14.0861 69.9199 14.1514 70.0127 14.1865C70.1055 14.2216 70.2083 14.2391 70.3212 14.2391C70.4064 14.2391 70.4842 14.2329 70.5544 14.2203C70.6272 14.2078 70.6823 14.1965 70.72 14.1865L70.9495 15.2512C70.8767 15.2763 70.7726 15.3039 70.6372 15.334C70.5043 15.3641 70.3412 15.3816 70.1481 15.3866C69.807 15.3967 69.4997 15.3452 69.2264 15.2324C68.953 15.117 68.736 14.9389 68.5755 14.6981C68.4175 14.4573 68.3397 14.1564 68.3422 13.7952V8.14429ZM77.1318 15.4205C76.5674 15.4205 76.0784 15.2963 75.6645 15.048C75.2507 14.7997 74.9296 14.4523 74.7014 14.0059C74.4756 13.5594 74.3628 13.0377 74.3628 12.4408C74.3628 11.8438 74.4756 11.3209 74.7014 10.8719C74.9296 10.423 75.2507 10.0743 75.6645 9.82601C76.0784 9.57771 76.5674 9.45355 77.1318 9.45355C77.6961 9.45355 78.1852 9.57771 78.5991 9.82601C79.0129 10.0743 79.3327 10.423 79.5584 10.8719C79.7867 11.3209 79.9008 11.8438 79.9008 12.4408C79.9008 13.0377 79.7867 13.5594 79.5584 14.0059C79.3327 14.4523 79.0129 14.7997 78.5991 15.048C78.1852 15.2963 77.6961 15.4205 77.1318 15.4205ZM77.1393 14.3294C77.4453 14.3294 77.7011 14.2454 77.9068 14.0774C78.1125 13.9068 78.2655 13.6786 78.3658 13.3926C78.4686 13.1067 78.5201 12.7882 78.5201 12.437C78.5201 12.0834 78.4686 11.7636 78.3658 11.4776C78.2655 11.1892 78.1125 10.9597 77.9068 10.7892C77.7011 10.6186 77.4453 10.5333 77.1393 10.5333C76.8258 10.5333 76.5649 10.6186 76.3568 10.7892C76.1511 10.9597 75.9968 11.1892 75.894 11.4776C75.7937 11.7636 75.7435 12.0834 75.7435 12.437C75.7435 12.7882 75.7937 13.1067 75.894 13.3926C75.9968 13.6786 76.1511 13.9068 76.3568 14.0774C76.5649 14.2454 76.8258 14.3294 77.1393 14.3294ZM82.4187 11.9216V15.3076H81.0568V9.5288H82.3585V10.5107H82.4262C82.5592 10.1872 82.7711 9.9301 83.062 9.73948C83.3555 9.54886 83.7179 9.45355 84.1493 9.45355C84.5481 9.45355 84.8955 9.53883 85.1915 9.70938C85.4899 9.87994 85.7207 10.127 85.8837 10.4505C86.0493 10.7741 86.1308 11.1666 86.1283 11.6281V15.3076H84.7663V11.8388C84.7663 11.4526 84.666 11.1503 84.4654 10.9321C84.2672 10.7139 83.9926 10.6048 83.6414 10.6048C83.4032 10.6048 83.1912 10.6575 83.0056 10.7628C82.8225 10.8657 82.6783 11.0149 82.5729 11.2105C82.4701 11.4062 82.4187 11.6432 82.4187 11.9216Z" fill="white"/>
<defs>
<linearGradient id="paint0_linear_2647_3658" x1="9.74805" y1="12.6582" x2="24.3238" y2="12.6582" gradientUnits="userSpaceOnUse">
<stop stop-color="#63BE6B"/>
<stop offset="0.506" stop-color="#5BBC6A"/>
<stop offset="1" stop-color="#4AB96A"/>
</linearGradient>
<linearGradient id="paint1_linear_2647_3658" x1="9.75612" y1="18.8562" x2="19.7654" y2="18.8562" gradientUnits="userSpaceOnUse">
<stop stop-color="#3EC6F2"/>
<stop offset="1" stop-color="#45AFE3"/>
</linearGradient>
<linearGradient id="paint2_linear_2647_3658" x1="19.7661" y1="19.1937" x2="32.4671" y2="19.1937" gradientUnits="userSpaceOnUse">
<stop stop-color="#FAA51A"/>
<stop offset="0.387" stop-color="#FAB716"/>
<stop offset="0.741" stop-color="#FAC412"/>
<stop offset="1" stop-color="#FAC80F"/>
</linearGradient>
<linearGradient id="paint3_linear_2647_3658" x1="9.84522" y1="25.6573" x2="24.9113" y2="25.6573" gradientUnits="userSpaceOnUse">
<stop stop-color="#EC3B50"/>
<stop offset="1" stop-color="#E7515B"/>
</linearGradient>
<clipPath id="clip0_2647_3658">
<rect width="26" height="26" fill="white" transform="translate(8.1084 6.41602)"/>
</clipPath>
</defs>
</svg>
