<svg width="30" height="30" viewBox="0 0 30 30" fill="none" xmlns="http://www.w3.org/2000/svg">
<path opacity="0.8" d="M0.958182 15.6918C7.55842 15.6918 9.84367 17.3528 11.1271 18.6362C12.4047 19.9169 14.0657 22.2021 14.0657 28.8051C14.0657 29.0549 14.0977 29.7633 14.8788 29.7633C15.6686 29.7633 15.6918 29.0547 15.6918 28.8051C15.6918 22.2021 17.3528 19.9169 18.6333 18.6362C19.9139 17.3528 22.1962 15.6918 28.7992 15.6918C29.0547 15.6918 29.7633 15.6686 29.7633 14.8788C29.7633 14.0977 29.0547 14.0657 28.7992 14.0657C22.1962 14.0657 19.9137 12.4107 18.6333 11.1271C17.3528 9.84349 15.6918 7.56121 15.6918 0.961156C15.6918 0.708602 15.6686 0 14.8788 0C14.0977 0 14.0657 0.708602 14.0657 0.961156C14.0657 7.56139 12.4047 9.84367 11.1271 11.1271C9.84367 12.4105 7.55842 14.0657 0.958182 14.0657C0.708416 14.0657 0 14.0947 0 14.8818C0 15.6626 0.708416 15.6918 0.958182 15.6918Z" fill="#05DF8B"/>
</svg>
