<svg width="35" height="35" viewBox="0 0 35 35" fill="none" xmlns="http://www.w3.org/2000/svg">
<rect width="34.46" height="34.4585" rx="5.16877" fill="#323639"/>
<path d="M17.5131 10.7823C18.2182 10.7715 18.9181 10.7771 19.6176 10.7715C19.6409 11.6463 19.9958 12.4337 20.5605 13.0169L20.5596 13.016C21.1674 13.5635 21.9582 13.9184 22.83 13.9787L22.8421 13.9796V16.1487C22.0185 16.1281 21.2441 15.9381 20.5458 15.6116L20.5812 15.6263C20.2435 15.4639 19.9579 15.2972 19.6865 15.1111L19.7089 15.1257C19.7038 16.6975 19.7141 18.2692 19.6982 19.8354C19.6538 20.6335 19.3885 21.3614 18.9629 21.9692L18.9715 21.9559C18.2599 22.975 17.1073 23.6439 15.7966 23.6835H15.7906C15.7376 23.6861 15.6751 23.6874 15.6122 23.6874C14.8671 23.6874 14.1706 23.4798 13.577 23.1193L13.5943 23.1292C12.514 22.4792 11.7688 21.367 11.631 20.0736L11.6293 20.0559C11.6185 19.7867 11.6133 19.5175 11.6241 19.2539C11.8352 17.1954 13.5598 15.603 15.6562 15.603C15.8918 15.603 16.1227 15.6232 16.3471 15.6616L16.323 15.6581C16.3337 16.4546 16.3014 17.2514 16.3014 18.0478C16.1192 17.9819 15.909 17.9436 15.6898 17.9436C14.8852 17.9436 14.2007 18.4579 13.9475 19.1759L13.9436 19.1888C13.8863 19.3728 13.8531 19.5842 13.8531 19.8031C13.8531 19.8918 13.8587 19.9797 13.8691 20.0658L13.8682 20.0555C14.0112 20.9367 14.7667 21.6018 15.6777 21.6018C15.704 21.6018 15.7298 21.6014 15.7557 21.6001H15.7518C16.382 21.5811 16.929 21.2421 17.2383 20.7412L17.2426 20.7334C17.3576 20.5732 17.4364 20.3794 17.4627 20.1687L17.4631 20.1627C17.5169 19.1992 17.4954 18.2412 17.5006 17.2777C17.5057 15.1085 17.4954 12.9445 17.5113 10.781L17.5131 10.7823Z" fill="#A8A299"/>
</svg>
