<svg width="65" height="51" viewBox="0 0 65 51" fill="none" xmlns="http://www.w3.org/2000/svg">
<g opacity="0.99">
<path d="M16.3235 12.5565L21.1368 0L9.41741 0C8.78958 0 8.16175 0.418552 7.7432 0.837103L0 12.5565H16.3235Z" fill="white"/>
<path d="M0 16.7421L28.0429 50.4355L16.3235 16.7421H0Z" fill="white"/>
<path d="M44.1572 12.5565L39.3438 0L25.5316 0L20.7183 12.5565L44.1572 12.5565Z" fill="white"/>
<path d="M20.7183 16.7421L32.4377 50.2262L44.1572 16.7421H20.7183Z" fill="white"/>
<path d="M64.8755 12.5565L57.1323 0.837103C56.7137 0.418552 56.0859 0 55.4581 0L43.7386 0L48.552 12.5565H64.8755Z" fill="white"/>
<path d="M48.552 16.7421L36.8325 50.4355L64.8755 16.7421L48.552 16.7421Z" fill="white"/>
</g>
</svg>
