<svg width="36" height="36" viewBox="0 0 36 36" fill="none" xmlns="http://www.w3.org/2000/svg">
<path d="M30.532 14.3887L12.0173 32.9033C11.7966 33.1241 11.5216 33.2841 11.2204 33.3662L2.26537 35.8086C1.64456 35.9777 0.980137 35.8008 0.525136 35.3457C0.0702567 34.8907 -0.106088 34.2263 0.0632222 33.6055L2.50561 24.6504C2.58772 24.3495 2.747 24.075 2.96752 23.8545L21.4831 5.33984L30.532 14.3887ZM29.4714 0C30.3115 5.28987e-05 31.1434 0.164873 31.9197 0.486328C32.6959 0.807902 33.4016 1.27984 33.9958 1.87402C34.5898 2.46803 35.061 3.17315 35.3826 3.94922C35.704 4.72556 35.8699 5.55814 35.8699 6.39844C35.8699 7.23873 35.704 8.0713 35.3826 8.84766C35.061 9.62371 34.5898 10.3288 33.9958 10.9229L33.0662 11.8525L24.0173 2.80273L24.946 1.87402C25.5403 1.27984 26.2459 0.807902 27.0222 0.486328C27.7986 0.164781 28.6312 0 29.4714 0Z" fill="#DEDEDE"/>
</svg>
