<svg preserveAspectRatio="none" width="100%" height="100%" overflow="visible" style="display: block;" viewBox="0 0 36 36" fill="none" xmlns="http://www.w3.org/2000/svg">
<g id="Edit">
<rect width="36" height="36" rx="18" fill="var(--fill-0, black)" fill-opacity="0.5"/>
<path id="Settings icon" d="M16.2691 7.29536C16.5754 5.31748 19.4248 5.3175 19.731 7.29536L19.7642 7.51118C19.9841 8.93104 21.7266 9.49679 22.7389 8.477L22.8922 8.3227C24.3026 6.90244 26.6082 8.57757 25.693 10.3579L25.5933 10.5512C24.9363 11.8292 26.0128 13.3106 27.4312 13.0805L27.6461 13.0463C29.6219 12.7263 30.5022 15.436 28.7154 16.3383L28.5211 16.436C27.2384 17.0837 27.2384 18.9162 28.5211 19.5639L28.7154 19.6616C30.5023 20.5639 29.622 23.2736 27.6461 22.9536L27.4312 22.9194C26.0128 22.6894 24.9364 24.1707 25.5933 25.4487L25.693 25.642C26.6084 27.4224 24.3026 29.0977 22.8922 27.6772L22.7389 27.5229C21.7265 26.503 19.9839 27.0696 19.7642 28.4897L19.731 28.7045C19.4248 30.6826 16.5752 30.6826 16.2691 28.7045L16.2359 28.4897C16.0164 27.0697 14.2747 26.5033 13.2623 27.5229L13.109 27.6772C11.6985 29.0981 9.3927 27.4225 10.3082 25.642L10.4078 25.4487C11.0644 24.1709 9.98803 22.6897 8.56991 22.9194L8.35506 22.9536C6.37897 23.274 5.49805 20.5641 7.28475 19.6616L7.47909 19.5639C8.76169 18.9162 8.76173 17.0837 7.47909 16.436L7.28475 16.3383C5.49809 15.4358 6.37898 12.7259 8.35506 13.0463L8.56991 13.0805C9.98811 13.3102 11.0645 11.829 10.4078 10.5512L10.3082 10.3579C9.3927 8.57739 11.6985 6.90182 13.109 8.3227L13.2623 8.477C14.2746 9.49662 16.016 8.93093 16.2359 7.51118L16.2691 7.29536ZM18.0006 11.769C14.5593 11.7691 11.7691 14.5592 11.7691 18.0004L11.7769 18.3208C11.9385 21.5067 14.4934 24.0614 17.6793 24.2231L18.0006 24.2309C21.3341 24.2307 24.0563 21.6129 24.2232 18.3208L24.231 18.0004C24.231 14.6667 21.6131 11.9437 18.3209 11.7768L18.0006 11.769ZM18.0006 12.3823C21.1031 12.3825 23.6177 14.8979 23.6178 18.0004C23.6175 21.1028 21.103 23.6174 18.0006 23.6176C14.898 23.6176 12.3826 21.1029 12.3824 18.0004C12.3824 14.8978 14.8979 12.3823 18.0006 12.3823ZM18.0025 14.1059C15.8519 14.1061 14.109 15.8498 14.109 18.0004C14.1092 20.151 15.852 21.8938 18.0025 21.894C20.1531 21.8939 21.8969 20.151 21.8971 18.0004C21.897 15.8497 20.1532 14.106 18.0025 14.1059Z" fill="var(--fill-0, white)"/>
</g>
</svg>
