<svg preserveAspectRatio="none" width="100%" height="100%" overflow="visible" style="display: block;" viewBox="0 0 36 36" fill="none" xmlns="http://www.w3.org/2000/svg">
<g id="Premium">
<rect width="36" height="36" rx="18" fill="var(--fill-0, black)" fill-opacity="0.5"/>
<g id="Premium_2">
<path d="M17.0129 7.79995H10.2677L12.7355 12.0774L17.0129 7.79995Z" fill="var(--fill-0, white)"/>
<path d="M12.0792 12.2419L9.60964 7.96447L6.15478 12.2419H12.0792Z" fill="var(--fill-0, white)"/>
<path d="M22.2774 12.2419H13.7226L18 7.96447L22.2774 12.2419Z" fill="var(--fill-0, white)"/>
<path d="M25.7323 7.79995H18.9871L23.1 11.9129L25.7323 7.79995Z" fill="var(--fill-0, white)"/>
<path d="M26.3904 8.12899L23.7581 12.2419H29.8452L26.3904 8.12899Z" fill="var(--fill-0, white)"/>
<path d="M12.4064 13.0645H6.15478L16.8484 27.2129L12.4064 13.0645Z" fill="var(--fill-0, white)"/>
<path d="M29.8452 13.0645H23.5936L19.1516 27.2129L29.8452 13.0645Z" fill="var(--fill-0, white)"/>
<path d="M22.771 13.0645H13.229L18 28.2L22.771 13.0645Z" fill="var(--fill-0, white)"/>
</g>
</g>
</svg>
